<?xml version="1.0" encoding="UTF-8" standalone="no"?>
<!-- Generator: Adobe Illustrator 16.0.0, SVG Export Plug-In . SVG Version: 6.00 Build 0)  -->

<svg
   xmlns:dc="http://purl.org/dc/elements/1.1/"
   xmlns:cc="http://creativecommons.org/ns#"
   xmlns:rdf="http://www.w3.org/1999/02/22-rdf-syntax-ns#"
   xmlns:svg="http://www.w3.org/2000/svg"
   xmlns="http://www.w3.org/2000/svg"
   xmlns:sodipodi="http://sodipodi.sourceforge.net/DTD/sodipodi-0.dtd"
   xmlns:inkscape="http://www.inkscape.org/namespaces/inkscape"
   version="1.1"
   id="Phone"
   x="0px"
   y="0px"
   width="45px"
   height="45px"
   viewBox="338.678 110.5 45 45"
   enable-background="new 338.678 110.5 45 45"
   xml:space="preserve"
   sodipodi:docname="skype_n_hover.svg"
   inkscape:version="0.92.1 r15371"><metadata
     id="metadata9"><rdf:RDF><cc:Work
         rdf:about=""><dc:format>image/svg+xml</dc:format><dc:type
           rdf:resource="http://purl.org/dc/dcmitype/StillImage" /><dc:title /></cc:Work></rdf:RDF></metadata><defs
     id="defs7" /><sodipodi:namedview
     pagecolor="#ffffff"
     bordercolor="#666666"
     borderopacity="1"
     objecttolerance="10"
     gridtolerance="10"
     guidetolerance="10"
     inkscape:pageopacity="0"
     inkscape:pageshadow="2"
     inkscape:window-width="1920"
     inkscape:window-height="1018"
     id="namedview5"
     showgrid="false"
     inkscape:zoom="5.2444444"
     inkscape:cx="-8.4851697"
     inkscape:cy="22.5"
     inkscape:window-x="-8"
     inkscape:window-y="-8"
     inkscape:window-maximized="1"
     inkscape:current-layer="Phone" /><g
     transform="translate(61.368675,-167)"
     id="g6"
     style="fill:#dfdcd5;fill-opacity:1;stroke:none;stroke-opacity:1"><path
       d="m 298.473,298.13 c -3.38,-0.838 -1.53,-3.789 1.209,-3.745 2.658,0.043 4.01,2.907 5.215,2.759 1.208,-0.149 2.236,-1.994 0.338,-3.645 -1.643,-1.43 -3.718,-2.218 -6.907,-1.922 -2.502,0.232 -4.878,1.873 -5.168,5.074 -0.29,3.203 3.431,4.829 6.377,5.273 2.064,0.31 4.88,1.329 3.189,3.299 -1.554,1.813 -4.493,0.692 -5.266,0.2 -0.773,-0.495 -1.644,-2.269 -3.094,-2.17 -1.452,0.097 -2.166,2.04 -0.385,3.744 1.595,1.526 3.334,2.364 7.052,2.167 3.722,-0.198 7.054,-3.546 5.749,-6.7 -1.303,-3.153 -4.925,-3.496 -8.309,-4.334 z"
       id="path2-9"
       inkscape:connector-curvature="0"
       style="fill:#dfdcd5;fill-opacity:1;stroke:none;stroke-opacity:1" /><path
       d="m 300,277.5 c -12.427,0 -22.5,10.073 -22.5,22.5 0,12.426 10.073,22.5 22.5,22.5 12.427,0 22.5,-10.074 22.5,-22.5 0,-12.427 -10.073,-22.5 -22.5,-22.5 z m 5.756,35.229 c -1.353,0 -2.616,-0.394 -3.688,-1.067 -0.69,0.127 -1.4,0.198 -2.129,0.198 -6.458,0 -11.688,-5.282 -11.688,-11.798 0,-0.631 0.049,-1.253 0.145,-1.859 -0.711,-1.109 -1.124,-2.43 -1.124,-3.853 0,-3.909 3.121,-7.078 6.975,-7.078 1.405,0 2.711,0.423 3.81,1.149 0.612,-0.103 1.242,-0.156 1.883,-0.156 6.455,0 11.688,5.284 11.688,11.799 0,0.541 -0.039,1.075 -0.109,1.601 0.765,1.135 1.211,2.508 1.212,3.987 0,3.91 -3.122,7.077 -6.975,7.077 z"
       id="path4"
       inkscape:connector-curvature="0"
       style="fill:#dfdcd5;fill-opacity:1;stroke:none;stroke-opacity:1" /></g><path
     style="stroke-width:0.19067797;fill:#dfdcd5;fill-opacity:0"
     d="M 20.021186,44.753621 C 15.394265,44.20325 10.96713,42.122876 7.4796449,38.86017 3.6720927,35.298027 1.3934355,31.057265 0.55950502,25.98124 0.19192807,23.743848 0.27514663,20.099119 0.74315359,17.937973 3.0105118,7.4678451 12.027651,0.15254256 22.6662,0.15254256 c 10.6929,0 19.699216,7.29024144 21.972002,17.78543044 0.468007,2.161146 0.551225,5.805875 0.183649,8.043267 -0.833932,5.076025 -3.112589,9.316787 -6.92014,12.87893 -4.863302,4.549845 -11.310727,6.674928 -17.880525,5.893451 z M 31.403993,34.629819 c 3.519302,-1.639966 5.108023,-6.114818 3.383322,-9.529591 C 34.460317,24.452798 34.3773,23.982392 34.404855,22.93307 34.545384,17.58164 31.021143,12.720321 25.836864,11.11443 25.187993,10.913435 23.988419,10.769703 22.690678,10.737458 20.962113,10.694508 20.425542,10.606883 19.63983,10.239244 18.862621,9.8755825 18.369316,9.7929675 16.970339,9.7921773 c -1.486818,-8.39e-4 -1.876143,0.072305 -2.913946,0.5474617 -1.542535,0.706246 -3.081239,2.3258 -3.675676,3.86881 -0.6205963,1.610914 -0.5975381,3.743321 0.05832,5.393246 0.405926,1.021178 0.493641,1.558356 0.498174,3.050848 0.0064,2.109922 0.332997,3.492238 1.250113,5.291206 1.459364,2.862616 3.705537,4.806372 6.836956,5.916454 1.136364,0.402837 1.779855,0.497211 3.6664,0.537709 1.769671,0.03799 2.525766,0.139291 3.336864,0.447074 1.520335,0.576913 3.879265,0.482508 5.376451,-0.215167 z"
     id="path814"
     inkscape:connector-curvature="0"
     transform="translate(338.678,110.5)" /></svg>