<?xml version="1.0" encoding="UTF-8" standalone="no"?>
<!-- Generator: Adobe Illustrator 16.0.0, SVG Export Plug-In . SVG Version: 6.00 Build 0)  -->

<svg
   xmlns:dc="http://purl.org/dc/elements/1.1/"
   xmlns:cc="http://creativecommons.org/ns#"
   xmlns:rdf="http://www.w3.org/1999/02/22-rdf-syntax-ns#"
   xmlns:svg="http://www.w3.org/2000/svg"
   xmlns="http://www.w3.org/2000/svg"
   xmlns:sodipodi="http://sodipodi.sourceforge.net/DTD/sodipodi-0.dtd"
   xmlns:inkscape="http://www.inkscape.org/namespaces/inkscape"
   version="1.1"
   id="Checkin"
   x="0px"
   y="0px"
   width="45px"
   height="45px"
   viewBox="333.75 72.532 45 45"
   enable-background="new 333.75 72.532 45 45"
   xml:space="preserve"
   sodipodi:docname="map_n_hover.svg"
   inkscape:version="0.92.1 r15371"><metadata
     id="metadata13"><rdf:RDF><cc:Work
         rdf:about=""><dc:format>image/svg+xml</dc:format><dc:type
           rdf:resource="http://purl.org/dc/dcmitype/StillImage" /></cc:Work></rdf:RDF></metadata><defs
     id="defs11" /><sodipodi:namedview
     pagecolor="#ffffff"
     bordercolor="#666666"
     borderopacity="1"
     objecttolerance="10"
     gridtolerance="10"
     guidetolerance="10"
     inkscape:pageopacity="0"
     inkscape:pageshadow="2"
     inkscape:window-width="1920"
     inkscape:window-height="1018"
     id="namedview9"
     showgrid="false"
     inkscape:zoom="5.2444444"
     inkscape:cx="-39.470339"
     inkscape:cy="22.5"
     inkscape:window-x="-8"
     inkscape:window-y="-8"
     inkscape:window-maximized="1"
     inkscape:current-layer="Checkin" /><g
     id="g6"
     style="fill:#dfdcd5;fill-opacity:1"><circle
       fill="#FFFFFF"
       cx="356.342"
       cy="92.018"
       r="5.854"
       id="circle2"
       style="fill:#dfdcd5;fill-opacity:1" /><path
       fill="#FFFFFF"
       d="M356.25,72.532c-12.427,0-22.5,10.073-22.5,22.5s10.073,22.5,22.5,22.5s22.5-10.073,22.5-22.5   S368.677,72.532,356.25,72.532z M356.25,110.414c-1.438-1.127-11.252-9.062-11.252-17.422c0-6.203,4.98-11.24,11.16-11.339v-0.004   c0.031,0,0.062,0.001,0.092,0.001s0.061-0.001,0.092-0.001v0.004c6.18,0.099,11.16,5.136,11.16,11.339   C367.502,101.352,357.688,109.287,356.25,110.414z"
       id="path4"
       style="fill:#dfdcd5;fill-opacity:1" /></g></svg>